<?xml version="1.0" encoding="UTF-8" standalone="no"?>
<svg
   version="1.1"
   width="1816px"
   height="1362px"
   viewBox="0 0 1816 1362"
   preserveAspectRatio="xMidYMid meet"
   id="svg8"
   sodipodi:docname="FreeSample-Vectorizer-io-dragon.svg"
   inkscape:version="1.4 (e7c3feb1, 2024-10-09)"
   xmlns:inkscape="http://www.inkscape.org/namespaces/inkscape"
   xmlns:sodipodi="http://sodipodi.sourceforge.net/DTD/sodipodi-0.dtd"
   xmlns="http://www.w3.org/2000/svg"
   xmlns:svg="http://www.w3.org/2000/svg">
  <defs
     id="defs8" />
  <sodipodi:namedview
     id="namedview8"
     pagecolor="#ffffff"
     bordercolor="#000000"
     borderopacity="0.25"
     inkscape:showpageshadow="2"
     inkscape:pageopacity="0.0"
     inkscape:pagecheckerboard="0"
     inkscape:deskcolor="#d1d1d1"
     inkscape:zoom="0.070787497"
     inkscape:rotation="1"
     inkscape:cx="2307.8631"
     inkscape:cy="277.61726"
     inkscape:window-width="1152"
     inkscape:window-height="484"
     inkscape:window-x="166"
     inkscape:window-y="157"
     inkscape:window-maximized="0"
     inkscape:current-layer="g8" />
  <g
     fill="#ffffff"
     id="g1">
    <path
       d="M0 681 l0 -681 908 0 908 0 0 681 0 681 -908 0 -908 0 0 -681z m1204.5 344 l225 -225 -450.5 0 -450.5 0 225 225 c123.7 123.8 225.2 225 225.5 225 0.3 0 101.8 -101.2 225.5 -225z m-586.5 -114.5 l-110.5 -110.5 -223 0 -223 0 110.5 110.5 110.5 110.5 223 0 223 0 -110.5 -110.5z m586.2 -348.7 l-225.2 -225.3 -225.2 225.3 -225.3 225.2 450.5 0 450.5 0 -225.3 -225.2z m-465.2 -162.3 c0 -84.4 -0.1 -153.5 -0.3 -153.5 -0.1 0 -69.3 69.1 -153.7 153.5 l-153.5 153.5 153.8 0 153.7 0 0 -153.5z m585.5 37.5 l111 -111 -111.5 -111.5 -111.5 -111.5 -111.2 111.2 -111.3 111.3 111.2 111.2 c61.2 61.2 111.5 111.3 111.8 111.3 0.3 0 50.5 -50 111.5 -111z m349.5 -117 l0 -222 -222.2 0 -222.3 0 222 222 c122.1 122.1 222.1 222 222.2 222 0.2 0 0.3 -99.9 0.3 -222z m-814.2 -102.7 c-59.5 -59.5 -108.3 -108.1 -108.4 -108 -0.1 0.1 0 97.3 0.3 216 l0.6 215.9 107.9 -107.9 107.8 -107.8 -108.2 -108.2z"
       id="path1" />
  </g>
  <g
     fill="#e75331"
     id="g8">
    <path
       d="M749 1026.5 l-229.5 -229.5 459.5 0 459.5 0 -229.5 229.5 c-126.2 126.2 -229.7 229.5 -230 229.5 -0.3 0 -103.8 -103.3 -230 -229.5z"
       id="path2"
       style="fill:#afe9c6" />
    <path
       d="M166 910.5 l-113.5 -113.5 229 0 229 0 113.5 113.5 113.5 113.5 -229 0 -229 0 -113.5 -113.5z"
       id="path3"
       style="fill:#00d400" />
    <path
       d="M749.3 560.3 l229.7 -229.8 229.7 229.8 229.8 229.7 -459.5 0 -459.5 0 229.8 -229.7z"
       id="path4"
       style="fill:#00ff66" />
    <path
       d="M582 396.5 c87.7 -87.7 159.6 -159.5 159.7 -159.5 0.2 0 0.3 71.8 0.3 159.5 l0 159.5 -159.7 0 -159.8 0 159.5 -159.5z"
       id="path5"
       style="fill:#7fff2a" />
    <path
       d="M1098.2 439.7 l-114.2 -114.2 114.3 -114.3 114.2 -114.2 114.5 114.5 114.5 114.5 -114 114 c-62.7 62.7 -114.2 114 -114.5 114 -0.3 0 -51.9 -51.4 -114.8 -114.3z"
       id="path6"
       style="fill:#7fff2a" />
    <path
       d="M1448.5 323 l-228 -228 228.3 0 228.2 0 0 228 c0 125.4 -0.1 228 -0.3 228 -0.1 0 -102.8 -102.6 -228.2 -228z"
       id="path7"
       style="fill:#00aa44" />
    <path
       d="M748.7 325.8 c-0.3 -123.3 -0.3 -224.5 -0.1 -224.7 0.3 -0.3 51.1 50.1 112.9 111.9 l112.5 112.5 -112.3 112.3 -112.4 112.4 -0.6 -224.4z"
       id="path8"
       style="fill:#00d455" />
  </g>
</svg>
