<?xml version="1.0" encoding="UTF-8" standalone="no"?>
<svg
   version="1.1"
   width="1816px"
   height="1362px"
   viewBox="0 0 1816 1362"
   preserveAspectRatio="xMidYMid meet"
   id="svg8"
   sodipodi:docname="dragon.svg"
   inkscape:version="1.4 (e7c3feb1, 2024-10-09)"
   inkscape:export-filename="dragon.png"
   inkscape:export-xdpi="96"
   inkscape:export-ydpi="96"
   xmlns:inkscape="http://www.inkscape.org/namespaces/inkscape"
   xmlns:sodipodi="http://sodipodi.sourceforge.net/DTD/sodipodi-0.dtd"
   xmlns="http://www.w3.org/2000/svg"
   xmlns:svg="http://www.w3.org/2000/svg">
  <defs
     id="defs8" />
  <sodipodi:namedview
     id="namedview8"
     pagecolor="#ffffff"
     bordercolor="#000000"
     borderopacity="0.25"
     inkscape:showpageshadow="2"
     inkscape:pageopacity="0.0"
     inkscape:pagecheckerboard="0"
     inkscape:deskcolor="#d1d1d1"
     inkscape:zoom="0.070787497"
     inkscape:rotation="1"
     inkscape:cx="2314.9254"
     inkscape:cy="277.49399"
     inkscape:window-width="1280"
     inkscape:window-height="682"
     inkscape:window-x="166"
     inkscape:window-y="129"
     inkscape:window-maximized="0"
     inkscape:current-layer="g8" />
  <g
     fill="#ffffff"
     id="g1">
    <path
       d="M0 681 l0 -681 908 0 908 0 0 681 0 681 -908 0 -908 0 0 -681z m1204.5 344 l225 -225 -450.5 0 -450.5 0 225 225 c123.7 123.8 225.2 225 225.5 225 0.3 0 101.8 -101.2 225.5 -225z m-586.5 -114.5 l-110.5 -110.5 -223 0 -223 0 110.5 110.5 110.5 110.5 223 0 223 0 -110.5 -110.5z m586.2 -348.7 l-225.2 -225.3 -225.2 225.3 -225.3 225.2 450.5 0 450.5 0 -225.3 -225.2z m-465.2 -162.3 c0 -84.4 -0.1 -153.5 -0.3 -153.5 -0.1 0 -69.3 69.1 -153.7 153.5 l-153.5 153.5 153.8 0 153.7 0 0 -153.5z m585.5 37.5 l111 -111 -111.5 -111.5 -111.5 -111.5 -111.2 111.2 -111.3 111.3 111.2 111.2 c61.2 61.2 111.5 111.3 111.8 111.3 0.3 0 50.5 -50 111.5 -111z m349.5 -117 l0 -222 -222.2 0 -222.3 0 222 222 c122.1 122.1 222.1 222 222.2 222 0.2 0 0.3 -99.9 0.3 -222z m-814.2 -102.7 c-59.5 -59.5 -108.3 -108.1 -108.4 -108 -0.1 0.1 0 97.3 0.3 216 l0.6 215.9 107.9 -107.9 107.8 -107.8 -108.2 -108.2z"
       id="path1" />
  </g>
  <g
     fill="#e75331"
     id="g8">
    <path
       d="M 818.42205,1075.4495 583.40909,914.71235 983.41514,845.81802 1383.4212,776.92368 1218.8632,1006.4803 c -90.4887,126.2311 -164.7318,229.5866 -164.9929,229.6316 -0.2613,0.045 -106.2168,-72.2744 -235.44825,-160.6624 z"
       id="path2"
       style="fill:#afe9c6;stroke-width:0.873632" />
    <path
       d="m 293.10056,1064.2243 -116.22643,-79.49325 199.35012,-34.3346 199.35012,-34.3347 116.22646,79.493 116.22644,79.49315 -199.35015,34.3348 -199.35012,34.3347 z"
       id="path3"
       style="fill:#00d400;stroke-width:0.873632" />
    <path
       d="M 747.12291,678.98844 911.80878,449.14673 1147.0419,610.1091 1382.3466,770.97151 982.34061,839.8658 582.33462,908.76013 Z"
       id="path4"
       style="fill:#00ff66;stroke-width:0.873632" />
    <path
       d="m 576.34134,564.79091 c 62.88333,-87.72165 114.45297,-159.55436 114.54002,-159.56935 0.17409,-0.03 11.28223,61.00752 24.74392,135.58003 l 24.48276,135.62503 -139.02277,23.94432 -139.10983,23.95932 z"
       id="path5"
       style="fill:#7fff2a;stroke-width:0.873632" />
    <path
       d="m 1032.3372,524.12891 -116.94326,-79.98344 81.95629,-114.32821 81.88457,-114.2282 117.2504,80.19356 117.2505,80.19355 -81.7412,114.02814 c -44.9578,62.71549 -81.9154,114.05816 -82.1764,114.10311 -0.2611,0.045 -53.0699,-35.92459 -117.4809,-79.97851 z"
       id="path6"
       style="fill:#7fff2a;stroke-width:0.873632" />
    <path
       d="m 1319.3689,372.3757 -233.477,-159.68669 198.7408,-34.22979 198.6536,-34.21474 34.9973,193.8715 c 19.2486,106.6293 34.9102,193.88647 34.7362,193.91648 -0.088,0.015 -105.2387,-71.82906 -233.6509,-159.65676 z"
       id="path7"
       style="fill:#00aa44;stroke-width:0.873632" />
    <path
       d="M 710.60555,479.67985 C 691.41823,374.88118 675.88433,288.82944 676.02773,288.6294 c 0.21511,-0.30008 52.17401,34.93911 115.45852,78.22264 l 115.20247,78.79276 -80.52223,112.32774 -80.5939,112.42773 z"
       id="path8"
       style="fill:#00d455;stroke-width:0.873632" />
  </g>
</svg>
